<?xml version="1.0" encoding="UTF-8"?>
<svg version="1.1" xmlns="http://www.w3.org/2000/svg" width="327" height="307">
<path d="M0 0 C2.4453125 1.609375 2.4453125 1.609375 5.125 3.75 C10.31869974 7.80224547 15.66830941 11.56061159 21.125 15.25 C27.55435018 19.60955341 33.90716009 24.05333205 40.1875 28.625 C46.47347718 33.20028851 52.82092406 37.66533254 59.24291992 42.04736328 C64.11256024 45.37465769 68.91784321 48.78270037 73.70532227 52.22680664 C78.15814191 55.42093227 82.66450232 58.53127172 87.1875 61.625 C89.17205969 62.98886257 91.1556998 64.35404513 93.13867188 65.72021484 C94.34380767 66.54882474 95.55072997 67.37484479 96.75976562 68.19775391 C98.32642094 69.2668903 99.88234105 70.35170897 101.4375 71.4375 C102.73494141 72.33275391 102.73494141 72.33275391 104.05859375 73.24609375 C106.74920366 75.67684597 106.92678003 77.72989126 107.13142776 81.279809 C107.13588976 82.54050787 107.13588976 82.54050787 107.14044189 83.82667542 C107.14615204 84.79546631 107.15186218 85.7642572 107.15774536 86.7624054 C107.15942215 88.34676643 107.15942215 88.34676643 107.16113281 89.96313477 C107.16609772 91.08056061 107.17106262 92.19798645 107.17617798 93.34927368 C107.19078732 97.04665745 107.19759811 100.74399836 107.203125 104.44140625 C107.20887561 107.00683087 107.21463335 109.57225547 107.22039795 112.13768005 C107.22956068 116.82800859 107.23586369 121.51831995 107.2388947 126.20865589 C107.24338174 133.11370358 107.26096505 140.01855394 107.2898953 146.92354161 C107.31409041 152.90577157 107.32183756 158.88790789 107.32357025 164.87019157 C107.32660474 167.41598526 107.33465987 169.96177794 107.34775543 172.50753975 C107.36473416 176.06060059 107.36295602 179.61317527 107.35644531 183.16625977 C107.3656601 184.22452469 107.37487488 185.28278961 107.3843689 186.37312317 C107.37601517 187.82207977 107.37601517 187.82207977 107.36749268 189.30030823 C107.36895924 190.14039712 107.3704258 190.98048601 107.3719368 191.84603214 C106.90903849 194.52677815 106.18151266 195.4091218 104 197 C101.39956686 197.29079727 99.03942604 197.39973707 96.43920898 197.37231445 C95.28757263 197.37779045 95.28757263 197.37779045 94.1126709 197.38337708 C91.57358722 197.39148668 89.03514085 197.37787066 86.49609375 197.36328125 C84.73397319 197.36276274 82.97185204 197.36328008 81.20973206 197.36479187 C77.51676804 197.36470213 73.82402226 197.35426852 70.13110352 197.33618164 C65.39057234 197.31347775 60.65035968 197.31295317 55.90978909 197.31969929 C52.27160293 197.3230357 48.63348979 197.31641567 44.99531746 197.30657005 C43.24696293 197.30271334 41.49860029 197.30157178 39.75024223 197.3031559 C37.3104686 197.30352551 34.87110822 197.29093642 32.43139648 197.2746582 C31.3411895 197.27837433 31.3411895 197.27837433 30.22895813 197.28216553 C25.22874395 197.22874395 25.22874395 197.22874395 23 195 C22.73828697 193.19216728 22.73828697 193.19216728 22.7215271 190.96310425 C22.71036362 190.11893951 22.69920013 189.27477478 22.68769836 188.4050293 C22.68553818 187.477146 22.68337799 186.5492627 22.68115234 185.59326172 C22.66608391 184.12978806 22.66608391 184.12978806 22.65071106 182.63674927 C22.61973735 179.4010682 22.60280457 176.16547038 22.5859375 172.9296875 C22.56723726 170.69051388 22.54766473 168.45134739 22.5272522 166.21218872 C22.47580411 160.31032505 22.43624635 154.40843849 22.39910889 148.50646973 C22.35212636 141.42959259 22.29047446 134.3528301 22.23126221 127.27604675 C22.14289558 116.51741045 22.07324155 105.75879783 22 95 C4.84 95 -12.32 95 -30 95 C-30.06058594 102.27933594 -30.12117188 109.55867188 -30.18359375 117.05859375 C-30.22406556 121.65690729 -30.26482725 126.25521456 -30.30664062 130.85351562 C-30.37305127 138.15989106 -30.43836012 145.46626518 -30.49731445 152.77270508 C-30.54488564 158.66009406 -30.59722554 164.54742272 -30.65294075 170.43474007 C-30.67339725 172.68630544 -30.69210474 174.93788738 -30.70907402 177.18948174 C-30.73304535 180.33137913 -30.76310947 183.47316133 -30.79467773 186.61499023 C-30.8004332 187.55581955 -30.80618866 188.49664886 -30.81211853 189.46598816 C-30.88594784 195.88594784 -30.88594784 195.88594784 -32 197 C-34.51452296 197.11098644 -37.00184181 197.15738688 -39.51733398 197.16113281 C-40.30430664 197.16609772 -41.0912793 197.17106262 -41.90209961 197.17617798 C-44.51677307 197.19083545 -47.13138588 197.19760715 -49.74609375 197.203125 C-51.55591332 197.20887304 -53.36573286 197.21463081 -55.17555237 197.22039795 C-58.97454107 197.23091784 -62.77350854 197.23675418 -66.57250977 197.24023438 C-71.44988971 197.2457244 -76.32699122 197.26975903 -81.20428371 197.29820633 C-84.94367808 197.31679238 -88.68300481 197.32203612 -92.42244148 197.32357025 C-94.22105496 197.32660593 -96.019667 197.33466503 -97.8182354 197.34775543 C-100.3301322 197.3647339 -102.84134124 197.36295623 -105.35327148 197.35644531 C-106.10191971 197.3656601 -106.85056793 197.37487488 -107.62190247 197.3843689 C-109.69114685 197.36749268 -109.69114685 197.36749268 -113 197 C-115.14497129 193.78254306 -115.25288326 192.93443734 -115.26742554 189.23110962 C-115.27595551 188.2497554 -115.28448547 187.26840118 -115.29327393 186.25730896 C-115.29236755 185.1819136 -115.29146118 184.10651825 -115.29052734 182.99853516 C-115.29724457 181.86496078 -115.30396179 180.73138641 -115.31088257 179.5634613 C-115.3299257 175.80528414 -115.33378998 172.04728495 -115.3359375 168.2890625 C-115.34236102 165.68215867 -115.34908904 163.07525557 -115.35610962 160.46835327 C-115.36890253 154.99907265 -115.37187432 149.52984044 -115.37060547 144.06054688 C-115.36940422 137.74216292 -115.39050179 131.42412065 -115.4220928 125.10582316 C-115.45141241 119.02480501 -115.45858116 112.94395061 -115.45738602 106.86286545 C-115.45974923 104.27685526 -115.46861301 101.69084266 -115.48405075 99.10487747 C-115.50361128 95.48971332 -115.49791088 91.87543179 -115.48583984 88.26025391 C-115.49707886 87.18890701 -115.50831787 86.11756012 -115.51989746 85.01374817 C-115.45811332 77.74461796 -115.45811332 77.74461796 -113.08901978 73.89389038 C-111.09705349 72.087988 -109.17312161 70.49311933 -106.9375 69 C-106.0609375 68.40574219 -105.184375 67.81148438 -104.28125 67.19921875 C-103.1984375 66.47347656 -102.115625 65.74773437 -101 65 C-97.9754248 62.9429714 -94.95658075 60.8775815 -91.9375 58.8125 C-91.11644775 58.25183838 -90.29539551 57.69117676 -89.44946289 57.11352539 C-81.93819597 51.97708519 -74.50043095 46.74099729 -67.07958984 41.47509766 C-63.61889081 39.02034964 -60.15346731 36.5723017 -56.6875 34.125 C-55.99164795 33.63362549 -55.2957959 33.14225098 -54.57885742 32.63598633 C-48.29406967 28.20130939 -41.99608213 23.78557091 -35.69042969 19.38061523 C-31.24858343 16.27743706 -26.81409255 13.16449168 -22.390625 10.03515625 C-21.47772705 9.3911084 -20.5648291 8.74706055 -19.62426758 8.08349609 C-17.86680466 6.843291 -16.11134647 5.60023895 -14.3581543 4.35400391 C-13.56836182 3.7976123 -12.77856934 3.2412207 -11.96484375 2.66796875 C-11.2699585 2.17578857 -10.57507324 1.6836084 -9.85913086 1.17651367 C-6.25879949 -1.10188382 -3.98527233 -1.20622486 0 0 Z " fill="#FBFBFB" transform="translate(168,89)"/>
<path d="M0 0 C4.06621688 1.55410383 7.25511041 3.80389563 10.734375 6.390625 C11.47171875 6.92494141 12.2090625 7.45925781 12.96875 8.00976562 C14.52742636 9.14059585 16.08270587 10.27612111 17.63476562 11.41601562 C20.65803752 13.63509217 23.69926548 15.82875109 26.7409668 18.02246094 C28.24584648 19.10792645 29.74990639 20.19452934 31.25317383 21.28222656 C42.98982053 29.77337374 54.85061433 38.0671426 66.82788086 46.21484375 C73.03633921 50.45433568 79.13254841 54.83379879 85.20800781 59.26098633 C91.41448279 63.76794012 97.73360009 68.09447847 104.08105469 72.3996582 C109.66271307 76.1992139 115.12201584 80.13477666 120.53466797 84.17041016 C125.635115 87.94877678 130.89063165 91.46441397 136.23925781 94.8815918 C139.19687115 96.8006631 140.99948962 98.16329693 142.984375 101.140625 C143.84481185 106.87687066 141.62143227 109.93579944 138.421875 114.390625 C137.96804443 115.04522705 137.51421387 115.6998291 137.04663086 116.37426758 C135.70450179 118.3051038 134.34527372 120.22299499 132.984375 122.140625 C131.93636719 123.65462891 131.93636719 123.65462891 130.8671875 125.19921875 C129.25623623 127.52576426 127.63495922 129.84206607 125.984375 132.140625 C125.54996094 132.88957031 125.11554688 133.63851562 124.66796875 134.41015625 C122.984375 136.140625 122.984375 136.140625 120.15625 136.62109375 C116.28141249 136.03414176 114.38534909 134.77467602 111.234375 132.453125 C110.6863623 132.05665771 110.13834961 131.66019043 109.57373047 131.25170898 C108.36141543 130.37250452 107.15377847 129.48682367 105.95019531 128.59570312 C102.3573699 125.93633409 98.7305932 123.32362194 95.109375 120.703125 C94.34077148 120.14471924 93.57216797 119.58631348 92.78027344 119.01098633 C88.08285427 115.61054932 83.3320428 112.3225801 78.484375 109.140625 C72.98402959 105.52787641 67.6187429 101.76138923 62.296875 97.890625 C47.93990828 87.45059327 33.35742712 77.3448159 18.66894531 67.37744141 C17.81139648 66.79526855 16.95384766 66.2130957 16.0703125 65.61328125 C15.23081055 65.04883301 14.39130859 64.48438477 13.52636719 63.90283203 C11.7627462 62.68022194 10.0303956 61.4117399 8.32519531 60.10888672 C7.46249023 59.45807129 6.59978516 58.80725586 5.7109375 58.13671875 C4.94604004 57.53915771 4.18114258 56.94159668 3.39306641 56.32592773 C0.14792716 54.72901399 -1.58237939 55.1527772 -5.015625 56.140625 C-7.17500899 57.25576043 -7.17500899 57.25576043 -9.08203125 58.765625 C-9.8076123 59.30243896 -10.53319336 59.83925293 -11.28076172 60.39233398 C-12.0388916 60.96927002 -12.79702148 61.54620605 -13.578125 62.140625 C-15.19588889 63.34082254 -16.81438162 64.54003828 -18.43359375 65.73828125 C-19.22040527 66.32496582 -20.0072168 66.91165039 -20.81787109 67.51611328 C-23.63614072 69.59929103 -26.50075656 71.59532292 -29.390625 73.578125 C-34.92879685 77.38693093 -40.44591173 81.22466635 -45.953125 85.078125 C-46.81977783 85.68446777 -47.68643066 86.29081055 -48.5793457 86.91552734 C-53.43307295 90.31639149 -58.26696889 93.74238106 -63.078125 97.203125 C-68.43921821 101.05665909 -73.87226455 104.79768263 -79.328125 108.515625 C-96.65462844 120.24294042 -96.65462844 120.24294042 -113.3515625 132.8359375 C-115.9713435 134.8899442 -117.95155394 136.12429316 -121.203125 136.953125 C-126.5288912 135.81812565 -127.69799855 133.26166384 -130.61328125 128.828125 C-130.97953613 128.25578125 -131.34579102 127.6834375 -131.72314453 127.09375 C-133.23454711 124.80980202 -134.83621781 122.6039451 -136.44921875 120.390625 C-137.65939838 118.70351524 -138.86903197 117.01601367 -140.078125 115.328125 C-140.67512207 114.51625732 -141.27211914 113.70438965 -141.88720703 112.86791992 C-145.94711555 107.0795414 -145.94711555 107.0795414 -146.25390625 102.875 C-144.62559931 99.27936954 -142.28820196 97.41315427 -139.140625 95.203125 C-138.25661011 94.5531958 -138.25661011 94.5531958 -137.35473633 93.89013672 C-133.02985756 90.74890285 -128.54292865 87.90189623 -123.99609375 85.09375 C-120.37638792 82.72172783 -116.95581837 80.13844659 -113.515625 77.515625 C-106.86649971 72.45425535 -100.06079778 67.68051059 -93.14550781 62.9909668 C-87.98102855 59.48813428 -82.85480083 55.93946369 -77.765625 52.328125 C-71.066931 47.57526483 -64.32851696 42.88223526 -57.578125 38.203125 C-49.81503878 32.81694953 -42.11069401 27.36021304 -34.46362305 21.81079102 C-29.29263181 18.0588733 -24.10335903 14.33436352 -18.890625 10.640625 C-18.21596191 10.16012695 -17.54129883 9.67962891 -16.84619141 9.18457031 C-14.91422681 7.8190783 -12.96607206 6.4795328 -11.015625 5.140625 C-10.33661133 4.64949219 -9.65759766 4.15835937 -8.95800781 3.65234375 C-5.8287285 1.49790394 -3.84862666 0.17946964 0 0 Z " fill="#FAFAFA" transform="translate(165.015625,19.859375)"/>
<path d="M0 0 C1.24956985 -0.00218285 1.24956985 -0.00218285 2.52438354 -0.00440979 C4.28110257 -0.0027528 6.0378364 0.0087862 7.79443359 0.02954102 C10.48988053 0.05856891 13.18336935 0.05013248 15.87890625 0.03710938 C17.58594709 0.04334471 19.29298172 0.05173405 21 0.0625 C22.21249924 0.05809654 22.21249924 0.05809654 23.44949341 0.05360413 C25.71533203 0.09204102 25.71533203 0.09204102 29.3671875 0.49609375 C31.57106164 3.80190496 31.61937057 4.8106143 31.62597656 8.65429688 C31.63228088 9.70548706 31.63858521 10.75667725 31.64508057 11.83972168 C31.6410321 12.97413696 31.63698364 14.10855225 31.6328125 15.27734375 C31.63568268 17.02488953 31.63568268 17.02488953 31.63861084 18.80773926 C31.63997261 21.27238175 31.63627674 23.73703142 31.62792969 26.20166016 C31.61723035 29.98095768 31.62782555 33.75977982 31.640625 37.5390625 C31.6393034 39.93099064 31.63674101 42.32291848 31.6328125 44.71484375 C31.63686096 45.84925903 31.64090942 46.98367432 31.64508057 48.15246582 C31.63877625 49.20365601 31.63247192 50.25484619 31.62597656 51.33789062 C31.62438538 52.26371948 31.62279419 53.18954834 31.62115479 54.14343262 C31.3671875 56.49609375 31.3671875 56.49609375 29.3671875 59.49609375 C26.31055566 60.16706171 24.25373309 59.9603014 21.46484375 58.5 C19.03939656 56.90561851 16.70603808 55.21533617 14.3671875 53.49609375 C13.25523404 52.70126416 12.14186498 51.9084125 11.02734375 51.1171875 C8.61896807 49.40667653 6.21752113 47.68705809 3.8203125 45.9609375 C0.04978936 43.25413615 -3.78662794 40.64698695 -7.64453125 38.06640625 C-10.8513883 35.53368221 -12.47246941 33.67110344 -13.03686523 29.53515625 C-13.06871106 25.85472594 -13.09063695 22.1766668 -13.0703125 18.49609375 C-13.09029297 17.2121875 -13.11027344 15.92828125 -13.13085938 14.60546875 C-13.13021484 13.373125 -13.12957031 12.14078125 -13.12890625 10.87109375 C-13.13075928 9.74445312 -13.1326123 8.6178125 -13.13452148 7.45703125 C-12.6328125 4.49609375 -12.6328125 4.49609375 -11.14135742 2.12866211 C-7.54361144 -0.21276148 -4.15278097 -0.05800467 0 0 Z " fill="#F6F6F6" transform="translate(242.6328125,19.50390625)"/>
<path d="M0 0 C2.60403207 1.50510561 4.9810991 3.24583408 7.375 5.0625 C8.01566406 5.53494141 8.65632813 6.00738281 9.31640625 6.49414062 C10.88489835 7.65295195 12.44348458 8.82515069 14 10 C13.34 10.33 12.68 10.66 12 11 C9.875 10.0625 9.875 10.0625 8 9 C8 8.34 8 7.68 8 7 C7.46375 6.9175 6.9275 6.835 6.375 6.75 C4 6 4 6 1.125 3.875 C-1.79555478 1.78556056 -1.79555478 1.78556056 -4.8125 1.875 C-8.61083603 3.21558919 -11.50640719 5.17131502 -14.75390625 7.52734375 C-17.09228506 9.0605069 -19.37832897 10.04624621 -22 11 C-18.88168864 7.45157672 -15.4732233 4.78365249 -11.5625 2.125 C-10.65628906 1.50882813 -9.75007812 0.89265625 -8.81640625 0.2578125 C-5.21204528 -1.35190211 -3.74666189 -1.21754759 0 0 Z " fill="#BFBFBF" transform="translate(168,21)"/>
<path d="M0 0 C0.66 0.33 1.32 0.66 2 1 C0.625 3 0.625 3 -1 5 C-1.66 5 -2.32 5 -3 5 C-3.33 5.99 -3.66 6.98 -4 8 C-6.03497016 9.2355176 -8.07059367 10.02544239 -10.30859375 10.83203125 C-13.28392316 12.12321194 -15.68272667 13.7315632 -18.3125 15.625 C-19.63701172 16.57246094 -19.63701172 16.57246094 -20.98828125 17.5390625 C-21.65214844 18.02117187 -22.31601563 18.50328125 -23 19 C-23.66 18.67 -24.32 18.34 -25 18 C-16.73225394 11.90391524 -8.45815765 5.83115339 0 0 Z " fill="#BCBCBC" transform="translate(147,98)"/>
<path d="M0 0 C0.66 0.33 1.32 0.66 2 1 C1.38125 1.2475 0.7625 1.495 0.125 1.75 C-2.42139034 3.24787667 -2.82683417 4.34082412 -4 7 C-5.4375 9.25 -5.4375 9.25 -7 11 C-7.99 11 -8.98 11 -10 11 C-12.01723344 11.96476382 -14.01612292 12.96838392 -16 14 C-17.65910004 14.68528045 -19.32332564 15.35891863 -21 16 C-16.98717105 11.67057705 -12.58219659 8.46375357 -7.6875 5.1875 C-6.94693359 4.68541016 -6.20636719 4.18332031 -5.44335938 3.66601562 C-3.63215731 2.43907229 -1.81772622 1.21724734 0 0 Z " fill="#CBCBCB" transform="translate(116,52)"/>
<path d="M0 0 C0.66 0.33 1.32 0.66 2 1 C1.27683594 1.47179687 1.27683594 1.47179687 0.5390625 1.953125 C-3.08539853 4.40888227 -5.08375869 6.03064299 -7 10 C-9.25 11.125 -9.25 11.125 -12 12 C-13.6396875 12.556875 -13.6396875 12.556875 -15.3125 13.125 C-16.6428125 13.558125 -16.6428125 13.558125 -18 14 C-14.61328496 10.33961102 -10.81399549 7.59149278 -6.75 4.75 C-5.77546875 4.06164062 -5.77546875 4.06164062 -4.78125 3.359375 C-3.18995001 2.23610442 -1.59530905 1.11756944 0 0 Z " fill="#C3C3C3" transform="translate(77,147)"/>
<path d="M0 0 C1.98 0 3.96 0 6 0 C-1.59143328 7.80230643 -1.59143328 7.80230643 -6.5625 8.5 C-10 8 -10 8 -11.9375 5.5 C-12.288125 4.675 -12.63875 3.85 -13 3 C-12.34 3 -11.68 3 -11 3 C-10.67 3.66 -10.34 4.32 -10 5 C-6.05272412 5.17942163 -3.4019487 5.09350689 0 3 C0 2.01 0 1.02 0 0 Z " fill="#D1D1D1" transform="translate(50,148)"/>
<path d="M0 0 C5.08938811 1.59043379 8.87456643 4.7446951 13 8 C9.73252911 9.0435755 8.8953076 8.9693143 5.375 7.9375 C2 6 2 6 0.5625 2.8125 C0.376875 1.884375 0.19125 0.95625 0 0 Z " fill="#CECECE" transform="translate(247,78)"/>
<path d="M0 0 C-2 1 -2 1 -4.625 1.1875 C-9.30885035 2.3150936 -12.34080382 4.96305292 -16 8 C-16.66 7.67 -17.32 7.34 -18 7 C-16 4 -16 4 -13 3 C-12.26676204 0.98491642 -12.26676204 0.98491642 -12 -1 C-7.28400182 -1.92470553 -4.32734391 -2.22923777 0 0 Z " fill="#BEBEBE" transform="translate(168,74)"/>
<path d="M0 0 C0.763125 0.165 1.52625 0.33 2.3125 0.5 C5.03596236 1.09145396 5.03596236 1.09145396 8 1 C2.555 4.96 2.555 4.96 -3 9 C-3.66 8.67 -4.32 8.34 -5 8 C-4.6390625 7.50628906 -4.278125 7.01257813 -3.90625 6.50390625 C-3.4421875 5.86324219 -2.978125 5.22257812 -2.5 4.5625 C-2.0359375 3.92441406 -1.571875 3.28632812 -1.09375 2.62890625 C0.09290897 1.18863968 0.09290897 1.18863968 0 0 Z " fill="#CECECE" transform="translate(98,113)"/>
<path d="M0 0 C0.66 0.33 1.32 0.66 2 1 C2.33 1.99 2.66 2.98 3 4 C0 5 0 5 -3 4 C-3.66 5.98 -4.32 7.96 -5 10 C-5.66 10 -6.32 10 -7 10 C-7.33 8.68 -7.66 7.36 -8 6 C-5.36 4.02 -2.72 2.04 0 0 Z " fill="#D5D5D5" transform="translate(90,138)"/>
<path d="M0 0 C0.66 0.33 1.32 0.66 2 1 C-0.31 2.65 -2.62 4.3 -5 6 C-5.33 5.34 -5.66 4.68 -6 4 C-6.66 4 -7.32 4 -8 4 C-8 3.34 -8 2.68 -8 2 C-4.91190305 0.23537317 -3.76687864 0 0 0 Z " fill="#D7D7D7" transform="translate(115,105)"/>
<path d="M0 0 C0.66 0.33 1.32 0.66 2 1 C0.71937515 2.7074998 -0.61767557 4.37373596 -2 6 C-2.66 6 -3.32 6 -4 6 C-4.33 6.66 -4.66 7.32 -5 8 C-6.32 7.67 -7.64 7.34 -9 7 C-6.03 4.69 -3.06 2.38 0 0 Z " fill="#CECECE" transform="translate(53,96)"/>
<path d="M0 0 C1.98 0 3.96 0 6 0 C7.32 2.31 8.64 4.62 10 7 C5.56541027 5.6062718 3.12621626 3.39417765 0 0 Z " fill="#CECECE" transform="translate(211,105)"/>
<path d="M0 0 C3.11198065 1.49836105 6.0534615 3.19933758 9 5 C6.92446352 5.5534764 5.15634036 6 3 6 C3 5.34 3 4.68 3 4 C2.01 3.67 1.02 3.34 0 3 C0 2.01 0 1.02 0 0 Z " fill="#D8D8D8" transform="translate(257,153)"/>
<path d="M0 0 C2.7839183 1.39195915 2.97898997 3.15575779 4 6 C1 6 1 6 -1.1875 4 C-1.785625 3.34 -2.38375 2.68 -3 2 C-2.01 1.34 -1.02 0.68 0 0 Z " fill="#CFCFCF" transform="translate(228,113)"/>
<path d="M0 0 C2.88437779 1.29299694 4.87219421 2.65941363 7 5 C5.02 5 3.04 5 1 5 C0.34 3.68 -0.32 2.36 -1 1 C-0.67 0.67 -0.34 0.34 0 0 Z " fill="#DBDBDB" transform="translate(264,90)"/>
<path d="M0 0 C3.79588866 0.54226981 5.47211993 2.20127563 8 5 C4.62537285 4.45276317 2.91765 3.9451 0 2 C0 1.34 0 0.68 0 0 Z " fill="#DCDCDC" transform="translate(179,99)"/>
</svg>
